# This file uses centimeters as units for non-parametric coordinates.

mtllib Vent_izq.mtl
g default
v -0.286480 1.480328 0.381366
v -0.253180 1.480328 0.341666
v -0.253180 1.516328 0.341666
v -0.286480 1.516328 0.381366
v -0.286480 1.107828 0.381366
v -0.253180 1.107828 0.341666
v -0.253180 1.127028 0.341666
v -0.286480 1.127028 0.381366
v -0.286480 0.757828 0.381366
v -0.253180 0.757828 0.341666
v -0.286480 0.736528 0.381366
v -0.253180 0.736528 0.341666
v -0.286480 0.377628 0.381366
v -0.253180 0.377628 0.341666
v -0.286480 0.357528 0.381366
v -0.253180 0.357528 0.341666
v -0.286480 0.001128 0.381366
v -0.253180 0.001128 0.341666
v -0.286480 -0.036372 0.381366
v -0.253180 -0.036372 0.341666
v -0.023680 1.480328 0.068166
v -0.023680 1.516328 0.068166
v -0.023680 1.107828 0.068166
v -0.023680 1.127028 0.068166
v -0.023680 0.736528 0.068166
v -0.023680 0.757828 0.068166
v -0.023680 0.357528 0.068166
v -0.023680 0.377628 0.068166
v -0.023680 -0.036372 0.068166
v -0.023680 0.001128 0.068166
v 0.002720 1.480328 0.036666
v 0.002720 1.516328 0.036666
v 0.002720 1.107828 0.036666
v 0.002720 1.127028 0.036666
v 0.002720 0.757828 0.036666
v 0.002720 0.736528 0.036666
v 0.002720 0.377628 0.036666
v 0.002720 0.357528 0.036666
v 0.002720 0.001128 0.036666
v 0.002720 -0.036372 0.036666
v -0.268480 1.101028 0.328766
v -0.038980 1.101028 0.055266
v -0.268480 0.764128 0.328766
v -0.038980 0.764128 0.055266
v -0.268480 0.730128 0.328766
v -0.038980 0.730128 0.055266
v -0.268480 0.386328 0.328766
v -0.038980 0.386328 0.055266
v -0.268480 0.348828 0.328766
v -0.038980 0.348828 0.055266
v -0.268480 0.001128 0.328766
v -0.038980 0.001128 0.055266
v -0.038980 1.133928 0.055266
v -0.268480 1.133928 0.328766
v -0.038980 1.480328 0.055266
v -0.268480 1.480328 0.328766
v -0.316780 1.516328 0.355966
v -0.316780 1.480328 0.355966
v -0.027480 1.516328 0.011266
v -0.053980 1.516328 0.042766
v -0.027480 -0.036372 0.011266
v -0.027480 0.001128 0.011266
v -0.316780 -0.036372 0.355966
v -0.283480 -0.036372 0.316266
v -0.316780 1.127028 0.355966
v -0.316780 1.107828 0.355966
v -0.027480 1.127028 0.011266
v -0.027480 1.480328 0.011266
v -0.027480 1.107828 0.011266
v -0.316780 0.757828 0.355966
v -0.027480 0.757828 0.011266
v -0.316780 0.736528 0.355966
v -0.027480 0.736528 0.011266
v -0.316780 0.377628 0.355966
v -0.027480 0.377628 0.011266
v -0.316780 0.357528 0.355966
v -0.027480 0.357528 0.011266
v -0.316780 0.001128 0.355966
v -0.283480 1.516328 0.316266
v -0.053980 -0.036372 0.042766
vt 0.031100 0.981000
vt 0.057300 0.981000
vt 0.057300 0.999400
vt 0.031100 0.999400
vt 0.519600 0.744700
vt 0.544700 0.742200
vt 0.542000 0.763100
vt 0.518000 0.759100
vt 0.516100 0.427600
vt 0.539800 0.416800
vt 0.513000 0.417900
vt 0.534900 0.408700
vt 0.241600 0.186400
vt 0.257500 0.177600
vt 0.031100 0.405300
vt 0.057300 0.405300
vt 0.057300 0.415500
vt 0.031100 0.415500
vt 0.031100 0.222500
vt 0.057300 0.222500
vt 0.031100 0.203200
vt 0.057300 0.203200
vt 0.429000 0.978500
vt 0.409700 0.981300
vt 0.237600 0.981000
vt 0.237600 0.999400
vt 0.660900 0.979400
vt 0.659800 0.990800
vt 0.800000 0.181600
vt 0.804700 0.187500
vt 0.237600 0.405300
vt 0.237600 0.415500
vt 0.237600 0.203200
vt 0.237600 0.222500
vt 0.258400 0.981000
vt 0.258400 0.999400
vt 0.258400 0.790000
vt 0.258400 0.799800
vt 0.237600 0.799800
vt 0.237600 0.790000
vt 0.258400 0.610500
vt 0.237600 0.610500
vt 0.258400 0.599600
vt 0.237600 0.599600
vt 0.258400 0.415500
vt 0.258400 0.405300
vt 0.258400 0.222500
vt 0.258400 0.203200
vt 0.551200 0.740000
vt 0.667900 0.979400
vt 0.547200 0.428200
vt 0.810500 0.194200
vt 0.335200 0.001600
vt 0.514600 0.007000
vt 0.510800 0.017000
vt 0.338200 0.011800
vt 0.535800 0.398500
vt 0.799500 0.173800
vt 0.269100 0.212000
vt 0.292900 0.356500
vt 0.273000 0.355000
vt 0.259600 0.214900
vt 0.291900 0.499000
vt 0.274600 0.498600
vt 0.267500 0.643200
vt 0.260900 0.638900
vt 0.830900 0.172800
vt 0.850200 0.316200
vt 0.834200 0.323100
vt 0.819100 0.173200
vt 0.848400 0.472600
vt 0.834000 0.471600
vt 0.841100 0.622600
vt 0.830300 0.621800
vt 0.835700 0.774600
vt 0.825000 0.770500
vt 0.658900 0.999500
vt 0.541400 0.778100
vt 0.785700 0.230700
vt 0.787000 0.364700
vt 0.771500 0.363700
vt 0.769400 0.232900
vt 0.784900 0.497400
vt 0.770200 0.497000
vt 0.432000 0.986700
vt 0.031400 0.965700
vt 0.030500 0.979800
vt 0.001600 0.979800
vt 0.001700 0.965600
vt 0.790500 0.840200
vt 0.791100 0.824200
vt 0.818600 0.824900
vt 0.817800 0.840800
vt 0.792200 0.226900
vt 0.793100 0.212100
vt 0.821700 0.212300
vt 0.821400 0.227100
vt 0.029600 0.348200
vt 0.029000 0.368300
vt 0.002400 0.367700
vt 0.003000 0.347600
vt 0.030800 0.819200
vt 0.030300 0.826800
vt 0.001200 0.826200
vt 0.001500 0.818600
vt 0.791400 0.810000
vt 0.790900 0.670500
vt 0.819000 0.671500
vt 0.819700 0.810700
vt 0.791400 0.663000
vt 0.819600 0.664000
vt 0.030100 0.681400
vt 0.000500 0.680500
vt 0.791400 0.524900
vt 0.819500 0.525900
vt 0.030400 0.673000
vt 0.001200 0.672200
vt 0.792000 0.516500
vt 0.820000 0.517500
vt 0.029700 0.531600
vt 0.001900 0.530700
vt 0.792000 0.375100
vt 0.820200 0.375800
vt 0.030100 0.523700
vt 0.002400 0.522800
vt 0.792600 0.367200
vt 0.820500 0.367900
vt 0.028800 0.383100
vt 0.001400 0.382500
vt 0.789200 0.999300
vt 0.789500 0.979100
vt 0.820000 0.979200
vt 0.818400 0.999400
vt 0.029500 0.209400
vt 0.000700 0.209300
vt 0.029600 0.193400
vt 0.001700 0.193400
vn 0.766157 0.000000 0.642653
vn 0.766158 0.000000 0.642653
vn 0.766157 0.000000 0.642653
vn 0.766020 -0.000000 0.642817
vn 0.766020 -0.000000 0.642817
vn 0.766020 -0.000000 0.642817
vn 0.766020 -0.000000 0.642817
vn 0.766020 -0.000000 0.642817
vn 0.766020 -0.000000 0.642817
vn 0.766020 -0.000000 0.642817
vn 0.766020 -0.000000 0.642817
vn 0.766020 -0.000000 0.642817
vn 0.766020 -0.000000 0.642817
vn 0.766020 -0.000000 0.642817
vn 0.766020 -0.000000 0.642817
vn 0.766020 -0.000000 0.642817
vn 0.766020 -0.000000 0.642817
vn 0.766020 -0.000000 0.642817
vn 0.766020 -0.000000 0.642817
vn 0.766020 -0.000000 0.642817
vn 0.766020 -0.000000 0.642817
vn 0.766020 -0.000000 0.642817
vn 0.766020 -0.000000 0.642817
vn 0.766020 -0.000000 0.642817
vn 0.766020 -0.000000 0.642817
vn 0.766020 -0.000000 0.642817
vn 0.766020 -0.000000 0.642817
vn 0.766020 -0.000000 0.642817
vn 0.766020 -0.000000 0.642817
vn 0.766020 -0.000000 0.642817
vn 0.766020 -0.000000 0.642817
vn 0.766020 -0.000000 0.642817
vn 0.766020 -0.000000 0.642817
vn 0.766020 -0.000000 0.642817
vn 0.766020 -0.000000 0.642817
vn 0.766020 -0.000000 0.642817
vn 0.766020 -0.000000 0.642817
vn 0.766020 -0.000000 0.642817
vn 0.766020 -0.000000 0.642817
vn 0.766020 -0.000000 0.642817
vn 0.766020 -0.000000 0.642817
vn 0.766020 -0.000000 0.642817
vn 0.766020 -0.000000 0.642817
vn 0.766020 -0.000000 0.642817
vn 0.766020 -0.000000 0.642817
vn 0.766020 -0.000000 0.642817
vn 0.766020 -0.000000 0.642817
vn 0.766020 -0.000000 0.642817
vn 0.766020 -0.000000 0.642817
vn 0.766020 -0.000000 0.642817
vn 0.766020 -0.000000 0.642817
vn 0.766020 -0.000000 0.642817
vn 0.766020 -0.000000 0.642817
vn 0.766020 -0.000000 0.642817
vn 0.766020 -0.000000 0.642817
vn 0.766020 -0.000000 0.642817
vn 0.766020 -0.000000 0.642817
vn 0.766020 -0.000000 0.642817
vn 0.766020 -0.000000 0.642817
vn 0.766020 -0.000000 0.642817
vn 0.766020 -0.000000 0.642817
vn 0.766020 -0.000000 0.642817
vn 0.766020 -0.000000 0.642817
vn 0.766020 -0.000000 0.642817
vn 0.766020 -0.000000 0.642817
vn 0.766020 -0.000000 0.642817
vn 0.766020 -0.000000 0.642817
vn 0.766020 -0.000000 0.642817
vn 0.766020 -0.000000 0.642817
vn 0.766020 -0.000000 0.642817
vn 0.766020 -0.000000 0.642817
vn 0.766020 -0.000000 0.642817
vn 0.766020 -0.000000 0.642817
vn 0.766020 -0.000000 0.642817
vn 0.766020 -0.000000 0.642817
vn 0.766020 -0.000000 0.642817
vn 0.766020 -0.000000 0.642817
vn 0.766020 -0.000000 0.642817
vn 0.766020 -0.000000 0.642817
vn 0.766020 -0.000000 0.642817
vn 0.766020 -0.000000 0.642817
vn 0.766020 -0.000000 0.642817
vn 0.766020 -0.000000 0.642817
vn 0.766020 -0.000000 0.642817
vn 0.766020 -0.000000 0.642817
vn 0.766020 -0.000000 0.642817
vn 0.766020 -0.000000 0.642817
vn 0.766020 -0.000000 0.642817
vn 0.766020 -0.000000 0.642817
vn 0.766020 -0.000000 0.642817
vn 0.766020 -0.000000 0.642817
vn 0.766020 -0.000000 0.642817
vn 0.766020 -0.000000 0.642817
vn 0.766020 -0.000000 0.642817
vn 0.766020 -0.000000 0.642817
vn 0.766020 -0.000000 0.642817
vn 0.766020 -0.000000 0.642817
vn 0.766020 -0.000000 0.642817
vn 0.766020 -0.000000 0.642817
vn 0.766020 -0.000000 0.642817
vn 0.766020 -0.000000 0.642817
vn 0.766020 -0.000000 0.642817
vn 0.766020 -0.000000 0.642817
vn 0.766020 -0.000000 0.642817
vn 0.766020 -0.000000 0.642817
vn 0.766020 -0.000000 0.642817
vn 0.766020 -0.000000 0.642817
vn 0.766020 -0.000000 0.642817
vn 0.766020 -0.000000 0.642817
vn 0.766020 -0.000000 0.642817
vn 0.766020 -0.000000 0.642817
vn 0.766020 -0.000000 0.642817
vn 0.766020 -0.000000 0.642817
vn 0.766020 -0.000000 0.642817
vn 0.766020 -0.000000 0.642817
vn 0.766020 -0.000000 0.642817
vn 0.766020 -0.000000 0.642817
vn 0.766020 -0.000000 0.642817
vn 0.766020 -0.000000 0.642817
vn 0.766020 -0.000000 0.642817
vn 0.766020 -0.000000 0.642817
vn 0.766020 -0.000000 0.642817
vn 0.766020 -0.000000 0.642817
vn 0.766020 -0.000000 0.642817
vn 0.766020 -0.000000 0.642817
vn 0.766020 -0.000000 0.642817
vn 0.766020 -0.000000 0.642817
vn 0.766020 -0.000000 0.642817
vn 0.766020 -0.000000 0.642817
vn 0.766020 -0.000000 0.642817
vn 0.766020 -0.000000 0.642817
vn 0.766020 -0.000000 0.642817
vn 0.766020 -0.000000 0.642817
vn 0.766020 -0.000000 0.642817
vn 0.766020 -0.000000 0.642817
vn 0.766020 -0.000000 0.642817
vn 0.766020 -0.000000 0.642817
vn 0.766020 -0.000000 0.642817
vn 0.252190 -0.944261 0.211591
vn 0.252190 -0.944261 0.211591
vn 0.252190 -0.944261 0.211591
vn 0.252190 -0.944261 0.211591
vn 0.252190 -0.944261 0.211591
vn 0.252190 -0.944261 0.211591
vn 0.642817 0.000000 -0.766020
vn 0.642817 0.000000 -0.766020
vn 0.642817 0.000000 -0.766020
vn 0.642817 0.000000 -0.766020
vn 0.642817 0.000000 -0.766020
vn 0.642817 0.000000 -0.766020
vn 0.235404 0.951618 0.197504
vn 0.235404 0.951618 0.197504
vn 0.235404 0.951618 0.197504
vn 0.235404 0.951618 0.197504
vn 0.235404 0.951618 0.197504
vn 0.235404 0.951618 0.197504
vn -0.642817 0.000000 0.766020
vn -0.642817 0.000000 0.766020
vn -0.642817 0.000000 0.766020
vn -0.642817 0.000000 0.766020
vn -0.642817 0.000000 0.766020
vn -0.642817 0.000000 0.766020
vn 0.235404 -0.951618 0.197504
vn 0.235404 -0.951618 0.197504
vn 0.235404 -0.951618 0.197504
vn 0.235404 -0.951618 0.197504
vn 0.235404 -0.951618 0.197504
vn 0.235404 -0.951618 0.197504
vn 0.642817 0.000000 -0.766020
vn 0.642817 0.000000 -0.766020
vn 0.642817 0.000000 -0.766020
vn 0.642817 0.000000 -0.766020
vn 0.642817 0.000000 -0.766020
vn 0.642817 0.000000 -0.766020
vn 0.310294 0.914282 0.260395
vn 0.310294 0.914282 0.260395
vn 0.310294 0.914282 0.260395
vn 0.310294 0.914282 0.260395
vn 0.310294 0.914282 0.260395
vn 0.310294 0.914282 0.260395
vn -0.642817 0.000000 0.766020
vn -0.642817 0.000000 0.766020
vn -0.642817 0.000000 0.766020
vn -0.642817 0.000000 0.766020
vn -0.642817 0.000000 0.766020
vn -0.642817 0.000000 0.766020
vn 0.310294 -0.914282 0.260395
vn 0.310294 -0.914282 0.260395
vn 0.310294 -0.914282 0.260395
vn 0.310294 -0.914282 0.260395
vn 0.310294 -0.914282 0.260395
vn 0.310294 -0.914282 0.260395
vn 0.642817 0.000000 -0.766020
vn 0.642817 0.000000 -0.766020
vn 0.642817 0.000000 -0.766020
vn 0.642817 0.000000 -0.766020
vn 0.642817 0.000000 -0.766020
vn 0.642817 0.000000 -0.766020
vn 0.000000 1.000000 0.000000
vn 0.000000 1.000000 0.000000
vn 0.000000 1.000000 0.000000
vn 0.000000 1.000000 0.000000
vn 0.000000 1.000000 0.000000
vn 0.000000 1.000000 0.000000
vn -0.642817 0.000000 0.766020
vn -0.642817 0.000000 0.766020
vn -0.642817 0.000000 0.766020
vn -0.642817 0.000000 0.766020
vn -0.642817 0.000000 0.766020
vn -0.642817 0.000000 0.766020
vn 0.252190 0.944261 0.211591
vn 0.252190 0.944261 0.211591
vn 0.252190 0.944261 0.211591
vn 0.252190 0.944261 0.211591
vn 0.252190 0.944261 0.211591
vn 0.252190 0.944261 0.211591
vn -0.642817 0.000000 0.766020
vn -0.642817 0.000000 0.766020
vn -0.642817 0.000000 0.766020
vn -0.642817 0.000000 0.766020
vn -0.642817 0.000000 0.766020
vn -0.642817 0.000000 0.766020
vn 0.000000 -1.000000 0.000000
vn 0.000000 -1.000000 0.000000
vn 0.000000 -1.000000 0.000000
vn 0.000000 -1.000000 0.000000
vn 0.000000 -1.000000 0.000000
vn 0.000000 -1.000000 0.000000
vn 0.642817 0.000000 -0.766020
vn 0.642817 0.000000 -0.766020
vn 0.642817 0.000000 -0.766020
vn 0.642817 0.000000 -0.766020
vn 0.642817 0.000000 -0.766020
vn 0.642817 0.000000 -0.766020
vn -0.642817 0.000000 0.766020
vn -0.642817 0.000000 0.766020
vn -0.642817 0.000000 0.766020
vn -0.642817 0.000000 0.766020
vn -0.642817 0.000000 0.766020
vn -0.642817 0.000000 0.766020
vn 0.000000 1.000000 0.000000
vn 0.000000 1.000000 0.000000
vn 0.000000 1.000000 0.000000
vn 0.000000 1.000000 0.000000
vn 0.000000 1.000000 0.000000
vn 0.000000 1.000000 0.000000
vn 0.642817 0.000000 -0.766020
vn 0.642817 0.000000 -0.766020
vn 0.642817 0.000000 -0.766020
vn 0.642817 0.000000 -0.766020
vn 0.642817 0.000000 -0.766020
vn 0.642817 0.000000 -0.766020
vn 0.000000 -1.000000 0.000000
vn 0.000000 -1.000000 0.000000
vn 0.000000 -1.000000 0.000000
vn 0.000000 -1.000000 0.000000
vn 0.000000 -1.000000 0.000000
vn 0.000000 -1.000000 0.000000
vn -0.642817 0.000000 0.766020
vn -0.642817 0.000000 0.766020
vn -0.642817 0.000000 0.766020
vn -0.642817 0.000000 0.766020
vn -0.642817 0.000000 0.766020
vn -0.642817 0.000000 0.766020
vn 0.642817 0.000000 -0.766020
vn 0.642817 0.000000 -0.766020
vn 0.642817 0.000000 -0.766020
vn 0.642817 0.000000 -0.766020
vn 0.642817 0.000000 -0.766020
vn 0.642817 0.000000 -0.766020
vn 0.642817 0.000000 -0.766020
vn 0.642817 0.000000 -0.766020
vn 0.642817 0.000000 -0.766020
vn 0.642817 0.000000 -0.766020
vn 0.642817 0.000000 -0.766020
vn 0.642817 0.000000 -0.766020
vn -0.642817 0.000000 0.766020
vn -0.642817 0.000000 0.766020
vn -0.642817 0.000000 0.766020
vn -0.642817 0.000000 0.766020
vn -0.642817 0.000000 0.766020
vn -0.642817 0.000000 0.766020
vn 0.642817 0.000000 -0.766020
vn 0.642817 0.000000 -0.766020
vn 0.642817 0.000000 -0.766020
vn 0.642817 0.000000 -0.766020
vn 0.642817 0.000000 -0.766020
vn 0.642817 0.000000 -0.766020
vn -0.642817 0.000000 0.766020
vn -0.642817 0.000000 0.766020
vn -0.642817 0.000000 0.766020
vn -0.642817 0.000000 0.766020
vn -0.642817 0.000000 0.766020
vn -0.642817 0.000000 0.766020
vn 0.642817 0.000000 -0.766020
vn 0.642817 0.000000 -0.766020
vn 0.642817 0.000000 -0.766020
vn 0.642817 0.000000 -0.766020
vn 0.642817 0.000000 -0.766020
vn 0.642817 0.000000 -0.766020
vn -0.642817 0.000000 0.766020
vn -0.642817 0.000000 0.766020
vn -0.642817 0.000000 0.766020
vn -0.642817 0.000000 0.766020
vn -0.642817 0.000000 0.766020
vn -0.642817 0.000000 0.766020
vn 0.642817 0.000000 -0.766020
vn 0.642817 0.000000 -0.766020
vn 0.642817 0.000000 -0.766020
vn 0.642817 0.000000 -0.766020
vn 0.642817 0.000000 -0.766020
vn 0.642817 0.000000 -0.766020
vn -0.642817 0.000000 0.766020
vn -0.642817 0.000000 0.766020
vn -0.642817 0.000000 0.766020
vn -0.642817 0.000000 0.766020
vn -0.642817 0.000000 0.766020
vn -0.642817 0.000000 0.766020
vn 0.642817 0.000000 -0.766020
vn 0.642817 0.000000 -0.766020
vn 0.642817 0.000000 -0.766020
vn 0.642817 0.000000 -0.766020
vn 0.642817 0.000000 -0.766020
vn 0.642817 0.000000 -0.766020
vn -0.642817 0.000000 0.766020
vn -0.642817 0.000000 0.766020
vn -0.642817 0.000000 0.766020
vn -0.642817 0.000000 0.766020
vn -0.642817 0.000000 0.766020
vn -0.642817 0.000000 0.766020
vn 0.642817 0.000000 -0.766020
vn 0.642817 0.000000 -0.766020
vn 0.642817 0.000000 -0.766020
vn 0.642817 0.000000 -0.766020
vn 0.642817 0.000000 -0.766020
vn 0.642817 0.000000 -0.766020
vn -0.642817 0.000000 0.766020
vn -0.642817 0.000000 0.766020
vn -0.642817 0.000000 0.766020
vn -0.642817 0.000000 0.766020
vn -0.642817 0.000000 0.766020
vn -0.642817 0.000000 0.766020
vn -0.642817 0.000000 0.766020
vn -0.642817 0.000000 0.766020
vn -0.642817 0.000000 0.766020
vn -0.642817 0.000000 0.766020
vn -0.642817 0.000000 0.766020
vn -0.642817 0.000000 0.766020
vn 0.642817 0.000000 -0.766020
vn 0.642817 0.000000 -0.766020
vn 0.642817 0.000000 -0.766020
vn 0.642817 0.000000 -0.766020
vn 0.642817 0.000000 -0.766020
vn 0.642817 0.000000 -0.766020
vn 0.000000 1.000000 0.000000
vn 0.000000 1.000000 0.000000
vn 0.000000 1.000000 0.000000
vn 0.000000 1.000000 0.000000
vn 0.000000 1.000000 0.000000
vn 0.000000 1.000000 0.000000
vn 0.000000 -1.000000 0.000000
vn 0.000000 -1.000000 0.000000
vn 0.000000 -1.000000 0.000000
vn 0.000000 -1.000000 0.000000
vn 0.000000 -1.000000 0.000000
vn 0.000000 -1.000000 0.000000
vn 0.000000 1.000000 0.000000
vn 0.000000 1.000000 0.000000
vn 0.000000 1.000000 0.000000
vn 0.000000 1.000000 0.000000
vn 0.000000 1.000000 0.000000
vn 0.000000 1.000000 0.000000
vn 0.000000 -1.000000 0.000000
vn 0.000000 -1.000000 0.000000
vn 0.000000 -1.000000 0.000000
vn 0.000000 -1.000000 0.000000
vn 0.000000 -1.000000 0.000000
vn 0.000000 -1.000000 0.000000
s off
g Enter_a_title:win_anim pasted__ventana1 group2
usemtl pasted__phongE8SG
f 1/1/1 2/2/2 3/3/3
f 3/3/4 4/4/5 1/1/6
f 5/5/7 6/6/8 7/7/9
f 7/7/10 8/8/11 5/5/12
f 9/9/13 10/10/14 6/6/15
f 6/6/16 5/5/17 9/9/18
f 11/11/19 12/12/20 10/10/21
f 10/10/22 9/9/23 11/11/24
f 13/13/25 14/14/26 12/12/27
f 12/12/28 11/11/29 13/13/30
f 15/15/31 16/16/32 14/17/33
f 14/17/34 13/18/35 15/15/36
f 17/19/37 18/20/38 16/16/39
f 16/16/40 15/15/41 17/19/42
f 19/21/43 20/22/44 18/20/45
f 18/20/46 17/19/47 19/21/48
f 8/8/49 7/7/50 2/23/51
f 2/23/52 1/24/53 8/8/54
f 21/25/55 22/26/56 3/3/57
f 3/3/58 2/2/59 21/25/60
f 23/27/61 24/28/62 7/7/63
f 7/7/64 6/6/65 23/27/66
f 25/29/67 26/30/68 10/10/69
f 10/10/70 12/12/71 25/29/72
f 27/31/73 28/32/74 14/17/75
f 14/17/76 16/16/77 27/31/78
f 29/33/79 30/34/80 18/20/81
f 18/20/82 20/22/83 29/33/84
f 31/35/85 32/36/86 22/26/87
f 22/26/88 21/25/89 31/35/90
f 33/37/91 34/38/92 24/39/93
f 24/39/94 23/40/95 33/37/96
f 35/41/97 33/37/98 23/40/99
f 23/40/100 26/42/101 35/41/102
f 36/43/103 35/41/104 26/42/105
f 26/42/106 25/44/107 36/43/108
f 37/45/109 36/43/110 25/44/111
f 25/44/112 28/32/113 37/45/114
f 38/46/115 37/45/116 28/32/117
f 28/32/118 27/31/119 38/46/120
f 39/47/121 38/46/122 27/31/123
f 27/31/124 30/34/125 39/47/126
f 40/48/127 39/47/128 30/34/129
f 30/34/130 29/33/131 40/48/132
f 34/38/133 31/35/134 21/25/135
f 21/25/136 24/39/137 34/38/138
f 23/27/139 6/6/140 41/49/141
f 41/49/142 42/50/143 23/27/144
f 6/6/145 10/10/146 43/51/147
f 43/51/148 41/49/149 6/6/150
f 10/10/151 26/30/152 44/52/153
f 44/52/154 43/51/155 10/10/156
f 26/53/157 23/54/158 42/55/159
f 42/55/160 44/56/161 26/53/162
f 25/29/163 12/12/164 45/57/165
f 45/57/166 46/58/167 25/29/168
f 12/59/169 14/60/170 47/61/171
f 47/61/172 45/62/173 12/59/174
f 14/60/175 28/63/176 48/64/177
f 48/64/178 47/61/179 14/60/180
f 28/63/181 25/65/182 46/66/183
f 46/66/184 48/64/185 28/63/186
f 27/67/187 16/68/188 49/69/189
f 49/69/190 50/70/191 27/67/192
f 16/68/193 18/71/194 51/72/195
f 51/72/196 49/69/197 16/68/198
f 18/71/199 30/73/200 52/74/201
f 52/74/202 51/72/203 18/71/204
f 30/73/205 27/75/206 50/76/207
f 50/76/208 52/74/209 30/73/210
f 7/7/211 24/28/212 53/77/213
f 53/77/214 54/78/215 7/7/216
f 24/79/217 21/80/218 55/81/219
f 55/81/220 53/82/221 24/79/222
f 21/80/223 2/83/224 56/84/225
f 56/84/226 55/81/227 21/80/228
f 2/23/229 7/7/230 54/78/231
f 54/78/232 56/85/233 2/23/234
f 1/86/235 4/87/236 57/88/237
f 57/88/238 58/89/239 1/86/240
f 22/90/241 32/91/242 59/92/243
f 59/92/244 60/93/245 22/90/246
f 39/94/247 40/95/248 61/96/249
f 61/96/250 62/97/251 39/94/252
f 20/98/253 19/99/254 63/100/255
f 63/100/256 64/101/257 20/98/258
f 5/102/259 8/103/260 65/104/261
f 65/104/262 66/105/263 5/102/264
f 31/106/265 34/107/266 67/108/267
f 67/108/268 68/109/269 31/106/270
f 34/107/271 33/110/272 69/111/273
f 69/111/274 67/108/275 34/107/276
f 9/112/277 5/102/278 66/105/279
f 66/105/280 70/113/281 9/112/282
f 33/110/283 35/114/284 71/115/285
f 71/115/286 69/111/287 33/110/288
f 11/116/289 9/112/290 70/113/291
f 70/113/292 72/117/293 11/116/294
f 35/114/295 36/118/296 73/119/297
f 73/119/298 71/115/299 35/114/300
f 13/120/301 11/116/302 72/117/303
f 72/117/304 74/121/305 13/120/306
f 36/118/307 37/122/308 75/123/309
f 75/123/310 73/119/311 36/118/312
f 15/124/313 13/120/314 74/121/315
f 74/121/316 76/125/317 15/124/318
f 37/122/319 38/126/320 77/127/321
f 77/127/322 75/123/323 37/122/324
f 17/128/325 15/124/326 76/125/327
f 76/125/328 78/129/329 17/128/330
f 38/126/331 39/94/332 62/97/333
f 62/97/334 77/127/335 38/126/336
f 19/99/337 17/128/338 78/129/339
f 78/129/340 63/100/341 19/99/342
f 8/103/343 1/86/344 58/89/345
f 58/89/346 65/104/347 8/103/348
f 32/91/349 31/106/350 68/109/351
f 68/109/352 59/92/353 32/91/354
f 4/130/355 3/131/356 79/132/357
f 79/132/358 57/133/359 4/130/360
f 29/134/361 20/98/362 64/101/363
f 64/101/364 80/135/365 29/134/366
f 3/131/367 22/90/368 60/93/369
f 60/93/370 79/132/371 3/131/372
f 40/136/373 29/134/374 80/135/375
f 80/135/376 61/137/377 40/136/378
g default
v -0.038980 0.764128 0.055266
v -0.038980 1.101028 0.055266
v -0.268480 1.101028 0.328766
v -0.268480 0.764128 0.328766
v -0.038980 0.386328 0.055266
v -0.038980 0.730128 0.055266
v -0.268480 0.730128 0.328766
v -0.268480 0.386328 0.328766
v -0.038980 0.001128 0.055266
v -0.038980 0.348828 0.055266
v -0.268480 0.348828 0.328766
v -0.268480 0.001128 0.328766
v -0.038980 1.133928 0.055266
v -0.038980 1.480328 0.055266
v -0.268480 1.480328 0.328766
v -0.268480 1.133928 0.328766
vt 0.031000 0.202100
vt 0.031000 0.029400
vt 0.211400 0.029400
vt 0.211400 0.202100
vt 0.821100 0.775900
vt 0.997400 0.775900
vt 0.997400 0.956200
vt 0.821100 0.956200
vt 0.437800 0.325700
vt 0.437800 0.147400
vt 0.618100 0.147400
vt 0.618100 0.325700
vt 0.215100 0.144200
vt 0.319500 0.000500
vt 0.465400 0.106500
vt 0.361000 0.250200
vn 0.766036 0.000000 0.642798
vn 0.766036 0.000000 0.642798
vn 0.766036 0.000000 0.642798
vn 0.766020 -0.000000 0.642817
vn 0.766020 -0.000000 0.642817
vn 0.766020 -0.000000 0.642817
vn 0.766020 -0.000000 0.642817
vn 0.766020 -0.000000 0.642817
vn 0.766020 -0.000000 0.642817
vn 0.766020 -0.000000 0.642817
vn 0.766020 -0.000000 0.642817
vn 0.766020 -0.000000 0.642817
vn 0.766020 -0.000000 0.642817
vn 0.766020 -0.000000 0.642817
vn 0.766020 -0.000000 0.642817
vn 0.766020 -0.000000 0.642817
vn 0.766020 -0.000000 0.642817
vn 0.766020 -0.000000 0.642817
vn 0.766020 -0.000000 0.642817
vn 0.766020 -0.000000 0.642817
vn 0.766020 -0.000000 0.642817
vn 0.766020 -0.000000 0.642817
vn 0.766020 -0.000000 0.642817
vn 0.766020 -0.000000 0.642817
s off
g pasted__ventana1 group2 Enter_a_title:glass
usemtl pasted__phongE6SG
f 81/138/379 82/139/380 83/140/381
f 83/140/382 84/141/383 81/138/384
f 85/142/385 86/143/386 87/144/387
f 87/144/388 88/145/389 85/142/390
f 89/146/391 90/147/392 91/148/393
f 91/148/394 92/149/395 89/146/396
f 93/150/397 94/151/398 95/152/399
f 95/152/400 96/153/401 93/150/402
