# This file uses centimeters as units for non-parametric coordinates.

mtllib ventana2.mtl
g default
v -1.004500 2.025800 -0.003100
v -1.004500 2.362700 -0.003100
v -0.695300 2.362700 0.175400
v -0.695300 2.025800 0.175400
v -1.004500 1.648000 -0.003100
v -1.004500 1.991800 -0.003100
v -0.695300 1.991800 0.175400
v -0.695300 1.648000 0.175400
v -1.004500 1.262800 -0.003100
v -1.004500 1.610500 -0.003100
v -0.695300 1.610500 0.175400
v -0.695300 1.262800 0.175400
v -1.004500 2.395600 -0.003100
v -1.004500 2.742000 -0.003100
v -0.695300 2.742000 0.175400
v -0.695300 2.395600 0.175400
vt 0.211400 0.029400
vt 0.031000 0.029400
vt 0.031000 0.202100
vt 0.211400 0.202100
vt 0.997400 0.956200
vt 0.997400 0.775900
vt 0.821100 0.775900
vt 0.821100 0.956200
vt 0.618100 0.147400
vt 0.437800 0.147400
vt 0.437800 0.325700
vt 0.618100 0.325700
vt 0.465400 0.106500
vt 0.319500 0.000500
vt 0.215100 0.144200
vt 0.361000 0.250200
vn -0.499965 0.000000 0.866045
vn -0.499965 0.000000 0.866045
vn -0.499965 0.000000 0.866045
vn -0.500011 0.000000 0.866019
vn -0.500011 0.000000 0.866019
vn -0.500011 0.000000 0.866019
vn -0.500011 0.000000 0.866019
vn -0.500011 0.000000 0.866019
vn -0.500011 0.000000 0.866019
vn -0.500011 0.000000 0.866019
vn -0.500011 0.000000 0.866019
vn -0.500011 0.000000 0.866019
vn -0.500011 0.000000 0.866019
vn -0.500011 0.000000 0.866019
vn -0.500011 0.000000 0.866019
vn -0.500011 0.000000 0.866019
vn -0.500011 0.000000 0.866019
vn -0.500011 0.000000 0.866019
vn -0.500011 0.000000 0.866019
vn -0.500011 0.000000 0.866019
vn -0.500011 0.000000 0.866019
vn -0.500011 0.000000 0.866019
vn -0.500011 0.000000 0.866019
vn -0.500011 0.000000 0.866019
s off
g Enter_a_title:glass2 group1
usemtl phongE5SG
f 3/1/1 2/2/2 1/3/3
f 1/3/4 4/4/5 3/1/6
f 7/5/7 6/6/8 5/7/9
f 5/7/10 8/8/11 7/5/12
f 11/9/13 10/10/14 9/11/15
f 9/11/16 12/12/17 11/9/18
f 15/13/19 14/14/20 13/15/21
f 13/15/22 16/16/23 15/13/24
g default
v -0.660400 2.742000 0.218700
v -0.705300 2.742000 0.192700
v -0.705300 2.778000 0.192700
v -0.660400 2.778000 0.218700
v -0.660400 2.369500 0.218700
v -0.705300 2.369500 0.192700
v -0.705300 2.388700 0.192700
v -0.660400 2.388700 0.218700
v -0.660400 2.019500 0.218700
v -0.705300 2.019500 0.192700
v -0.660400 1.998200 0.218700
v -0.705300 1.998200 0.192700
v -0.660400 1.639300 0.218700
v -0.705300 1.639300 0.192700
v -0.660400 1.619200 0.218700
v -0.705300 1.619200 0.192700
v -0.660400 1.262800 0.218700
v -0.705300 1.262800 0.192700
v -0.660400 1.225300 0.218700
v -0.705300 1.225300 0.192700
v -1.014500 2.742000 0.014200
v -1.014500 2.778000 0.014200
v -1.014500 2.369500 0.014200
v -1.014500 2.388700 0.014200
v -1.014500 1.998200 0.014200
v -1.014500 2.019500 0.014200
v -1.014500 1.619200 0.014200
v -1.014500 1.639300 0.014200
v -1.014500 1.225300 0.014200
v -1.014500 1.262800 0.014200
v -1.050100 2.742000 -0.006300
v -1.050100 2.778000 -0.006300
v -1.050100 2.369500 -0.006300
v -1.050100 2.388700 -0.006300
v -1.050100 2.019500 -0.006300
v -1.050100 1.998200 -0.006300
v -1.050100 1.639300 -0.006300
v -1.050100 1.619200 -0.006300
v -1.050100 1.262800 -0.006300
v -1.050100 1.225300 -0.006300
v -0.695300 2.362700 0.175400
v -1.004500 2.362700 -0.003100
v -0.695300 2.025800 0.175400
v -1.004500 2.025800 -0.003100
v -0.695300 1.991800 0.175400
v -1.004500 1.991800 -0.003100
v -0.695300 1.648000 0.175400
v -1.004500 1.648000 -0.003100
v -0.695300 1.610500 0.175400
v -1.004500 1.610500 -0.003100
v -0.695300 1.262800 0.175400
v -1.004500 1.262800 -0.003100
v -1.004500 2.395600 -0.003100
v -0.695300 2.395600 0.175400
v -1.004500 2.742000 -0.003100
v -0.695300 2.742000 0.175400
v -0.640600 2.778000 0.184400
v -0.640600 2.742000 0.184400
v -1.030300 2.778000 -0.040600
v -0.994700 2.778000 -0.020000
v -1.030300 1.225300 -0.040600
v -1.030300 1.262800 -0.040600
v -0.640600 1.225300 0.184400
v -0.685500 1.225300 0.158500
v -0.640600 2.388700 0.184400
v -0.640600 2.369500 0.184400
v -1.030300 2.388700 -0.040600
v -1.030300 2.742000 -0.040600
v -1.030300 2.369500 -0.040600
v -0.640600 2.019500 0.184400
v -1.030300 2.019500 -0.040600
v -0.640600 1.998200 0.184400
v -1.030300 1.998200 -0.040600
v -0.640600 1.639300 0.184400
v -1.030300 1.639300 -0.040600
v -0.640600 1.619200 0.184400
v -1.030300 1.619200 -0.040600
v -0.640600 1.262800 0.184400
v -0.685500 2.778000 0.158500
v -0.994700 1.225300 -0.020000
vt 0.057300 0.999400
vt 0.057300 0.981000
vt 0.031100 0.981000
vt 0.031100 0.999400
vt 0.542000 0.763100
vt 0.544700 0.742200
vt 0.519600 0.744700
vt 0.518000 0.759100
vt 0.539800 0.416800
vt 0.516100 0.427600
vt 0.534900 0.408700
vt 0.513000 0.417900
vt 0.257500 0.177600
vt 0.241600 0.186400
vt 0.057300 0.415500
vt 0.057300 0.405300
vt 0.031100 0.405300
vt 0.031100 0.415500
vt 0.057300 0.222500
vt 0.031100 0.222500
vt 0.057300 0.203200
vt 0.031100 0.203200
vt 0.429000 0.978500
vt 0.409700 0.981300
vt 0.237600 0.999400
vt 0.237600 0.981000
vt 0.659800 0.990800
vt 0.660900 0.979400
vt 0.804700 0.187500
vt 0.800000 0.181600
vt 0.237600 0.415500
vt 0.237600 0.405300
vt 0.237600 0.222500
vt 0.237600 0.203200
vt 0.258400 0.999400
vt 0.258400 0.981000
vt 0.237600 0.799800
vt 0.258400 0.799800
vt 0.258400 0.790000
vt 0.237600 0.790000
vt 0.258400 0.610500
vt 0.237600 0.610500
vt 0.258400 0.599600
vt 0.237600 0.599600
vt 0.258400 0.415500
vt 0.258400 0.405300
vt 0.258400 0.222500
vt 0.258400 0.203200
vt 0.551200 0.740000
vt 0.667900 0.979400
vt 0.547200 0.428200
vt 0.810500 0.194200
vt 0.510800 0.017000
vt 0.514600 0.007000
vt 0.335200 0.001600
vt 0.338200 0.011800
vt 0.535800 0.398500
vt 0.799500 0.173800
vt 0.273000 0.355000
vt 0.292900 0.356500
vt 0.269100 0.212000
vt 0.259600 0.214900
vt 0.274600 0.498600
vt 0.291900 0.499000
vt 0.260900 0.638900
vt 0.267500 0.643200
vt 0.834200 0.323100
vt 0.850200 0.316200
vt 0.830900 0.172800
vt 0.819100 0.173200
vt 0.834000 0.471600
vt 0.848400 0.472600
vt 0.830300 0.621800
vt 0.841100 0.622600
vt 0.825000 0.770500
vt 0.835700 0.774600
vt 0.658900 0.999500
vt 0.541400 0.778100
vt 0.771500 0.363700
vt 0.787000 0.364700
vt 0.785700 0.230700
vt 0.769400 0.232900
vt 0.770200 0.497000
vt 0.784900 0.497400
vt 0.432000 0.986700
vt 0.001600 0.979800
vt 0.030500 0.979800
vt 0.031400 0.965700
vt 0.001700 0.965600
vt 0.818600 0.824900
vt 0.791100 0.824200
vt 0.790500 0.840200
vt 0.817800 0.840800
vt 0.821700 0.212300
vt 0.793100 0.212100
vt 0.792200 0.226900
vt 0.821400 0.227100
vt 0.002400 0.367700
vt 0.029000 0.368300
vt 0.029600 0.348200
vt 0.003000 0.347600
vt 0.001200 0.826200
vt 0.030300 0.826800
vt 0.030800 0.819200
vt 0.001500 0.818600
vt 0.819000 0.671500
vt 0.790900 0.670500
vt 0.791400 0.810000
vt 0.819700 0.810700
vt 0.819600 0.664000
vt 0.791400 0.663000
vt 0.030100 0.681400
vt 0.000500 0.680500
vt 0.819500 0.525900
vt 0.791400 0.524900
vt 0.030400 0.673000
vt 0.001200 0.672200
vt 0.820000 0.517500
vt 0.792000 0.516500
vt 0.029700 0.531600
vt 0.001900 0.530700
vt 0.820200 0.375800
vt 0.792000 0.375100
vt 0.030100 0.523700
vt 0.002400 0.522800
vt 0.820500 0.367900
vt 0.792600 0.367200
vt 0.028800 0.383100
vt 0.001400 0.382500
vt 0.820000 0.979200
vt 0.789500 0.979100
vt 0.789200 0.999300
vt 0.818400 0.999400
vt 0.029500 0.209400
vt 0.000700 0.209300
vt 0.029600 0.193400
vt 0.001700 0.193400
vn -0.501112 0.000000 0.865382
vn -0.501112 0.000000 0.865382
vn -0.501112 0.000000 0.865382
vn -0.500011 0.000000 0.866019
vn -0.500011 0.000000 0.866019
vn -0.500011 0.000000 0.866019
vn -0.500011 0.000000 0.866019
vn -0.500011 0.000000 0.866019
vn -0.500011 0.000000 0.866019
vn -0.500011 0.000000 0.866019
vn -0.500011 0.000000 0.866019
vn -0.500011 0.000000 0.866019
vn -0.500011 0.000000 0.866019
vn -0.500011 0.000000 0.866019
vn -0.500011 0.000000 0.866019
vn -0.500011 0.000000 0.866019
vn -0.500011 0.000000 0.866019
vn -0.500011 0.000000 0.866019
vn -0.500011 0.000000 0.866019
vn -0.500011 0.000000 0.866019
vn -0.500011 0.000000 0.866019
vn -0.500011 0.000000 0.866019
vn -0.500011 0.000000 0.866019
vn -0.500011 0.000000 0.866019
vn -0.500011 0.000000 0.866019
vn -0.500011 0.000000 0.866019
vn -0.500011 0.000000 0.866019
vn -0.500011 0.000000 0.866019
vn -0.500011 0.000000 0.866019
vn -0.500011 0.000000 0.866019
vn -0.500011 0.000000 0.866019
vn -0.500011 0.000000 0.866019
vn -0.500011 0.000000 0.866019
vn -0.500011 0.000000 0.866019
vn -0.500011 0.000000 0.866019
vn -0.500011 0.000000 0.866019
vn -0.500011 0.000000 0.866019
vn -0.500011 0.000000 0.866019
vn -0.500011 0.000000 0.866019
vn -0.500011 0.000000 0.866019
vn -0.500011 0.000000 0.866019
vn -0.500011 0.000000 0.866019
vn -0.500011 0.000000 0.866019
vn -0.500011 0.000000 0.866019
vn -0.500011 0.000000 0.866019
vn -0.500011 0.000000 0.866019
vn -0.500011 0.000000 0.866019
vn -0.500011 0.000000 0.866019
vn -0.500011 0.000000 0.866019
vn -0.500011 0.000000 0.866019
vn -0.500011 0.000000 0.866019
vn -0.500011 0.000000 0.866019
vn -0.500011 0.000000 0.866019
vn -0.500011 0.000000 0.866019
vn -0.500011 0.000000 0.866019
vn -0.500011 0.000000 0.866019
vn -0.500011 0.000000 0.866019
vn -0.500011 0.000000 0.866019
vn -0.500011 0.000000 0.866019
vn -0.500011 0.000000 0.866019
vn -0.500011 0.000000 0.866019
vn -0.500011 0.000000 0.866019
vn -0.500011 0.000000 0.866019
vn -0.500011 0.000000 0.866019
vn -0.500011 0.000000 0.866019
vn -0.500011 0.000000 0.866019
vn -0.500011 0.000000 0.866019
vn -0.500011 0.000000 0.866019
vn -0.500011 0.000000 0.866019
vn -0.500011 0.000000 0.866019
vn -0.500011 0.000000 0.866019
vn -0.500011 0.000000 0.866019
vn -0.500011 0.000000 0.866019
vn -0.500011 0.000000 0.866019
vn -0.500011 0.000000 0.866019
vn -0.500011 0.000000 0.866019
vn -0.500011 0.000000 0.866019
vn -0.500011 0.000000 0.866019
vn -0.500011 0.000000 0.866019
vn -0.500011 0.000000 0.866019
vn -0.500011 0.000000 0.866019
vn -0.500011 0.000000 0.866019
vn -0.500011 0.000000 0.866019
vn -0.500011 0.000000 0.866019
vn -0.500011 0.000000 0.866019
vn -0.500011 0.000000 0.866019
vn -0.500011 0.000000 0.866019
vn -0.500011 0.000000 0.866019
vn -0.500011 0.000000 0.866019
vn -0.500011 0.000000 0.866019
vn -0.500011 0.000000 0.866019
vn -0.500011 0.000000 0.866019
vn -0.500011 0.000000 0.866019
vn -0.500011 0.000000 0.866019
vn -0.500011 0.000000 0.866019
vn -0.500011 0.000000 0.866019
vn -0.500011 0.000000 0.866019
vn -0.500011 0.000000 0.866019
vn -0.500011 0.000000 0.866019
vn -0.500011 0.000000 0.866019
vn -0.500011 0.000000 0.866019
vn -0.500011 0.000000 0.866019
vn -0.500011 0.000000 0.866019
vn -0.500011 0.000000 0.866019
vn -0.500011 0.000000 0.866019
vn -0.500011 0.000000 0.866019
vn -0.500011 0.000000 0.866019
vn -0.500011 0.000000 0.866019
vn -0.500011 0.000000 0.866019
vn -0.500011 0.000000 0.866019
vn -0.500011 0.000000 0.866019
vn -0.500011 0.000000 0.866019
vn -0.500011 0.000000 0.866019
vn -0.500011 0.000000 0.866019
vn -0.500011 0.000000 0.866019
vn -0.500011 0.000000 0.866019
vn -0.500011 0.000000 0.866019
vn -0.500011 0.000000 0.866019
vn -0.500011 0.000000 0.866019
vn -0.500011 0.000000 0.866019
vn -0.500011 0.000000 0.866019
vn -0.500011 0.000000 0.866019
vn -0.500011 0.000000 0.866019
vn -0.500011 0.000000 0.866019
vn -0.500011 0.000000 0.866019
vn -0.500011 0.000000 0.866019
vn -0.500011 0.000000 0.866019
vn -0.500011 0.000000 0.866019
vn -0.500011 0.000000 0.866019
vn -0.500011 0.000000 0.866019
vn -0.500011 0.000000 0.866019
vn -0.500011 0.000000 0.866019
vn -0.500011 0.000000 0.866019
vn -0.500011 0.000000 0.866019
vn -0.500011 0.000000 0.866019
vn -0.500011 0.000000 0.866019
vn -0.500011 0.000000 0.866019
vn -0.500011 0.000000 0.866019
vn -0.164594 -0.944263 0.285089
vn -0.164594 -0.944263 0.285089
vn -0.164594 -0.944263 0.285089
vn -0.164594 -0.944263 0.285089
vn -0.164594 -0.944263 0.285089
vn -0.164594 -0.944263 0.285089
vn -0.866019 0.000000 -0.500011
vn -0.866019 0.000000 -0.500011
vn -0.866019 0.000000 -0.500011
vn -0.866019 0.000000 -0.500011
vn -0.866019 0.000000 -0.500011
vn -0.866019 0.000000 -0.500011
vn -0.153604 0.951626 0.266107
vn -0.153604 0.951626 0.266107
vn -0.153604 0.951626 0.266107
vn -0.153604 0.951626 0.266107
vn -0.153604 0.951626 0.266107
vn -0.153604 0.951626 0.266107
vn 0.866019 0.000000 0.500011
vn 0.866019 0.000000 0.500011
vn 0.866019 0.000000 0.500011
vn 0.866019 0.000000 0.500011
vn 0.866019 0.000000 0.500011
vn 0.866019 0.000000 0.500011
vn -0.153604 -0.951626 0.266107
vn -0.153604 -0.951626 0.266107
vn -0.153604 -0.951626 0.266107
vn -0.153604 -0.951626 0.266107
vn -0.153604 -0.951626 0.266107
vn -0.153604 -0.951626 0.266107
vn -0.866019 0.000000 -0.500011
vn -0.866019 0.000000 -0.500011
vn -0.866019 0.000000 -0.500011
vn -0.866019 0.000000 -0.500011
vn -0.866019 0.000000 -0.500011
vn -0.866019 0.000000 -0.500011
vn -0.202595 0.914276 0.350791
vn -0.202595 0.914276 0.350791
vn -0.202595 0.914276 0.350791
vn -0.202595 0.914276 0.350791
vn -0.202595 0.914276 0.350791
vn -0.202595 0.914276 0.350791
vn 0.866019 0.000000 0.500011
vn 0.866019 0.000000 0.500011
vn 0.866019 0.000000 0.500011
vn 0.866019 0.000000 0.500011
vn 0.866019 0.000000 0.500011
vn 0.866019 0.000000 0.500011
vn -0.202595 -0.914276 0.350791
vn -0.202595 -0.914276 0.350791
vn -0.202595 -0.914276 0.350791
vn -0.202595 -0.914276 0.350791
vn -0.202595 -0.914276 0.350791
vn -0.202595 -0.914276 0.350791
vn -0.866019 0.000000 -0.500011
vn -0.866019 0.000000 -0.500011
vn -0.866019 0.000000 -0.500011
vn -0.866019 0.000000 -0.500011
vn -0.866019 0.000000 -0.500011
vn -0.866019 0.000000 -0.500011
vn 0.000000 1.000000 0.000000
vn 0.000000 1.000000 0.000000
vn 0.000000 1.000000 0.000000
vn 0.000000 1.000000 0.000000
vn 0.000000 1.000000 0.000000
vn 0.000000 1.000000 0.000000
vn 0.866019 0.000000 0.500011
vn 0.866019 0.000000 0.500011
vn 0.866019 0.000000 0.500011
vn 0.866019 0.000000 0.500011
vn 0.866019 0.000000 0.500011
vn 0.866019 0.000000 0.500011
vn -0.164594 0.944263 0.285089
vn -0.164594 0.944263 0.285089
vn -0.164594 0.944263 0.285089
vn -0.164594 0.944263 0.285089
vn -0.164594 0.944263 0.285089
vn -0.164594 0.944263 0.285089
vn 0.866019 0.000000 0.500011
vn 0.866019 0.000000 0.500011
vn 0.866019 0.000000 0.500011
vn 0.866019 0.000000 0.500011
vn 0.866019 0.000000 0.500011
vn 0.866019 0.000000 0.500011
vn 0.000000 -1.000000 0.000000
vn 0.000000 -1.000000 0.000000
vn 0.000000 -1.000000 0.000000
vn 0.000000 -1.000000 0.000000
vn 0.000000 -1.000000 0.000000
vn 0.000000 -1.000000 0.000000
vn -0.866019 0.000000 -0.500011
vn -0.866019 0.000000 -0.500011
vn -0.866019 0.000000 -0.500011
vn -0.866019 0.000000 -0.500011
vn -0.866019 0.000000 -0.500011
vn -0.866019 0.000000 -0.500011
vn 0.866019 0.000000 0.500011
vn 0.866019 0.000000 0.500011
vn 0.866019 0.000000 0.500011
vn 0.866019 0.000000 0.500011
vn 0.866019 0.000000 0.500011
vn 0.866019 0.000000 0.500011
vn 0.000000 1.000000 0.000000
vn 0.000000 1.000000 0.000000
vn 0.000000 1.000000 0.000000
vn 0.000000 1.000000 0.000000
vn 0.000000 1.000000 0.000000
vn 0.000000 1.000000 0.000000
vn -0.866019 0.000000 -0.500011
vn -0.866019 0.000000 -0.500011
vn -0.866019 0.000000 -0.500011
vn -0.866019 0.000000 -0.500011
vn -0.866019 0.000000 -0.500011
vn -0.866019 0.000000 -0.500011
vn 0.000000 -1.000000 0.000000
vn 0.000000 -1.000000 0.000000
vn 0.000000 -1.000000 0.000000
vn 0.000000 -1.000000 0.000000
vn 0.000000 -1.000000 0.000000
vn 0.000000 -1.000000 0.000000
vn 0.866019 0.000000 0.500011
vn 0.866019 0.000000 0.500011
vn 0.866019 0.000000 0.500011
vn 0.866019 0.000000 0.500011
vn 0.866019 0.000000 0.500011
vn 0.866019 0.000000 0.500011
vn -0.866019 0.000000 -0.500011
vn -0.866019 0.000000 -0.500011
vn -0.866019 0.000000 -0.500011
vn -0.866019 0.000000 -0.500011
vn -0.866019 0.000000 -0.500011
vn -0.866019 0.000000 -0.500011
vn -0.866019 0.000000 -0.500011
vn -0.866019 0.000000 -0.500011
vn -0.866019 0.000000 -0.500011
vn -0.866019 0.000000 -0.500011
vn -0.866019 0.000000 -0.500011
vn -0.866019 0.000000 -0.500011
vn 0.866019 0.000000 0.500011
vn 0.866019 0.000000 0.500011
vn 0.866019 0.000000 0.500011
vn 0.866019 0.000000 0.500011
vn 0.866019 0.000000 0.500011
vn 0.866019 0.000000 0.500011
vn -0.866019 0.000000 -0.500011
vn -0.866019 0.000000 -0.500011
vn -0.866019 0.000000 -0.500011
vn -0.866019 0.000000 -0.500011
vn -0.866019 0.000000 -0.500011
vn -0.866019 0.000000 -0.500011
vn 0.866019 0.000000 0.500011
vn 0.866019 0.000000 0.500011
vn 0.866019 0.000000 0.500011
vn 0.866019 0.000000 0.500011
vn 0.866019 0.000000 0.500011
vn 0.866019 0.000000 0.500011
vn -0.866019 0.000000 -0.500011
vn -0.866019 0.000000 -0.500011
vn -0.866019 0.000000 -0.500011
vn -0.866019 0.000000 -0.500011
vn -0.866019 0.000000 -0.500011
vn -0.866019 0.000000 -0.500011
vn 0.866019 0.000000 0.500011
vn 0.866019 0.000000 0.500011
vn 0.866019 0.000000 0.500011
vn 0.866019 0.000000 0.500011
vn 0.866019 0.000000 0.500011
vn 0.866019 0.000000 0.500011
vn -0.866019 0.000000 -0.500011
vn -0.866019 0.000000 -0.500011
vn -0.866019 0.000000 -0.500011
vn -0.866019 0.000000 -0.500011
vn -0.866019 0.000000 -0.500011
vn -0.866019 0.000000 -0.500011
vn 0.866019 0.000000 0.500011
vn 0.866019 0.000000 0.500011
vn 0.866019 0.000000 0.500011
vn 0.866019 0.000000 0.500011
vn 0.866019 0.000000 0.500011
vn 0.866019 0.000000 0.500011
vn -0.866019 0.000000 -0.500011
vn -0.866019 0.000000 -0.500011
vn -0.866019 0.000000 -0.500011
vn -0.866019 0.000000 -0.500011
vn -0.866019 0.000000 -0.500011
vn -0.866019 0.000000 -0.500011
vn 0.866019 0.000000 0.500011
vn 0.866019 0.000000 0.500011
vn 0.866019 0.000000 0.500011
vn 0.866019 0.000000 0.500011
vn 0.866019 0.000000 0.500011
vn 0.866019 0.000000 0.500011
vn -0.866019 0.000000 -0.500011
vn -0.866019 0.000000 -0.500011
vn -0.866019 0.000000 -0.500011
vn -0.866019 0.000000 -0.500011
vn -0.866019 0.000000 -0.500011
vn -0.866019 0.000000 -0.500011
vn 0.866019 0.000000 0.500011
vn 0.866019 0.000000 0.500011
vn 0.866019 0.000000 0.500011
vn 0.866019 0.000000 0.500011
vn 0.866019 0.000000 0.500011
vn 0.866019 0.000000 0.500011
vn 0.866019 0.000000 0.500011
vn 0.866019 0.000000 0.500011
vn 0.866019 0.000000 0.500011
vn 0.866019 0.000000 0.500011
vn 0.866019 0.000000 0.500011
vn 0.866019 0.000000 0.500011
vn -0.866019 0.000000 -0.500011
vn -0.866019 0.000000 -0.500011
vn -0.866019 0.000000 -0.500011
vn -0.866019 0.000000 -0.500011
vn -0.866019 0.000000 -0.500011
vn -0.866019 0.000000 -0.500011
vn 0.000000 1.000000 0.000000
vn 0.000000 1.000000 0.000000
vn 0.000000 1.000000 0.000000
vn 0.000000 1.000000 0.000000
vn 0.000000 1.000000 0.000000
vn 0.000000 1.000000 0.000000
vn 0.000000 -1.000000 0.000000
vn 0.000000 -1.000000 0.000000
vn 0.000000 -1.000000 0.000000
vn 0.000000 -1.000000 0.000000
vn 0.000000 -1.000000 0.000000
vn 0.000000 -1.000000 0.000000
vn 0.000000 1.000000 0.000000
vn 0.000000 1.000000 0.000000
vn 0.000000 1.000000 0.000000
vn 0.000000 1.000000 0.000000
vn 0.000000 1.000000 0.000000
vn 0.000000 1.000000 0.000000
vn 0.000000 -1.000000 0.000000
vn 0.000000 -1.000000 0.000000
vn 0.000000 -1.000000 0.000000
vn 0.000000 -1.000000 0.000000
vn 0.000000 -1.000000 0.000000
vn 0.000000 -1.000000 0.000000
s off
g group1 Enter_a_title:win_still
usemtl phongE7SG
f 19/17/25 18/18/26 17/19/27
f 17/19/28 20/20/29 19/17/30
f 23/21/31 22/22/32 21/23/33
f 21/23/34 24/24/35 23/21/36
f 22/22/37 26/25/38 25/26/39
f 25/26/40 21/23/41 22/22/42
f 26/25/43 28/27/44 27/28/45
f 27/28/46 25/26/47 26/25/48
f 28/27/49 30/29/50 29/30/51
f 29/30/52 27/28/53 28/27/54
f 30/31/55 32/32/56 31/33/57
f 31/33/58 29/34/59 30/31/60
f 32/32/61 34/35/62 33/36/63
f 33/36/64 31/33/65 32/32/66
f 34/35/67 36/37/68 35/38/69
f 35/38/70 33/36/71 34/35/72
f 18/39/73 23/21/74 24/24/75
f 24/24/76 17/40/77 18/39/78
f 19/17/79 38/41/80 37/42/81
f 37/42/82 18/18/83 19/17/84
f 23/21/85 40/43/86 39/44/87
f 39/44/88 22/22/89 23/21/90
f 26/25/91 42/45/92 41/46/93
f 41/46/94 28/27/95 26/25/96
f 30/31/97 44/47/98 43/48/99
f 43/48/100 32/32/101 30/31/102
f 34/35/103 46/49/104 45/50/105
f 45/50/106 36/37/107 34/35/108
f 38/41/109 48/51/110 47/52/111
f 47/52/112 37/42/113 38/41/114
f 40/53/115 50/54/116 49/55/117
f 49/55/118 39/56/119 40/53/120
f 39/56/121 49/55/122 51/57/123
f 51/57/124 42/58/125 39/56/126
f 42/58/127 51/57/128 52/59/129
f 52/59/130 41/60/131 42/58/132
f 41/60/133 52/59/134 53/61/135
f 53/61/136 44/47/137 41/60/138
f 44/47/139 53/61/140 54/62/141
f 54/62/142 43/48/143 44/47/144
f 43/48/145 54/62/146 55/63/147
f 55/63/148 46/49/149 43/48/150
f 46/49/151 55/63/152 56/64/153
f 56/64/154 45/50/155 46/49/156
f 37/42/157 47/52/158 50/54/159
f 50/54/160 40/53/161 37/42/162
f 57/65/163 22/22/164 39/44/165
f 39/44/166 58/66/167 57/65/168
f 59/67/169 26/25/170 22/22/171
f 22/22/172 57/65/173 59/67/174
f 60/68/175 42/45/176 26/25/177
f 26/25/178 59/67/179 60/68/180
f 58/69/181 39/70/182 42/71/183
f 42/71/184 60/72/185 58/69/186
f 61/73/187 28/27/188 41/46/189
f 41/46/190 62/74/191 61/73/192
f 63/75/193 30/76/194 28/77/195
f 28/77/196 61/78/197 63/75/198
f 64/79/199 44/80/200 30/76/201
f 30/76/202 63/75/203 64/79/204
f 62/81/205 41/82/206 44/80/207
f 44/80/208 64/79/209 62/81/210
f 65/83/211 32/84/212 43/85/213
f 43/85/214 66/86/215 65/83/216
f 67/87/217 34/88/218 32/84/219
f 32/84/220 65/83/221 67/87/222
f 68/89/223 46/90/224 34/88/225
f 34/88/226 67/87/227 68/89/228
f 66/91/229 43/92/230 46/90/231
f 46/90/232 68/89/233 66/91/234
f 69/93/235 40/43/236 23/21/237
f 23/21/238 70/94/239 69/93/240
f 71/95/241 37/96/242 40/97/243
f 40/97/244 69/98/245 71/95/246
f 72/99/247 18/100/248 37/96/249
f 37/96/250 71/95/251 72/99/252
f 70/94/253 23/21/254 18/39/255
f 18/39/256 72/101/257 70/94/258
f 73/102/259 20/103/260 17/104/261
f 17/104/262 74/105/263 73/102/264
f 75/106/265 48/107/266 38/108/267
f 38/108/268 76/109/269 75/106/270
f 77/110/271 56/111/272 55/112/273
f 55/112/274 78/113/275 77/110/276
f 79/114/277 35/115/278 36/116/279
f 36/116/280 80/117/281 79/114/282
f 81/118/283 24/119/284 21/120/285
f 21/120/286 82/121/287 81/118/288
f 83/122/289 50/123/290 47/124/291
f 47/124/292 84/125/293 83/122/294
f 85/126/295 49/127/296 50/123/297
f 50/123/298 83/122/299 85/126/300
f 82/121/301 21/120/302 25/128/303
f 25/128/304 86/129/305 82/121/306
f 87/130/307 51/131/308 49/127/309
f 49/127/310 85/126/311 87/130/312
f 86/129/313 25/128/314 27/132/315
f 27/132/316 88/133/317 86/129/318
f 89/134/319 52/135/320 51/131/321
f 51/131/322 87/130/323 89/134/324
f 88/133/325 27/132/326 29/136/327
f 29/136/328 90/137/329 88/133/330
f 91/138/331 53/139/332 52/135/333
f 52/135/334 89/134/335 91/138/336
f 90/137/337 29/136/338 31/140/339
f 31/140/340 92/141/341 90/137/342
f 93/142/343 54/143/344 53/139/345
f 53/139/346 91/138/347 93/142/348
f 92/141/349 31/140/350 33/144/351
f 33/144/352 94/145/353 92/141/354
f 78/113/355 55/112/356 54/143/357
f 54/143/358 93/142/359 78/113/360
f 94/145/361 33/144/362 35/115/363
f 35/115/364 79/114/365 94/145/366
f 74/105/367 17/104/368 24/119/369
f 24/119/370 81/118/371 74/105/372
f 84/125/373 47/124/374 48/107/375
f 48/107/376 75/106/377 84/125/378
f 95/146/379 19/147/380 20/148/381
f 20/148/382 73/149/383 95/146/384
f 80/117/385 36/116/386 45/150/387
f 45/150/388 96/151/389 80/117/390
f 76/109/391 38/108/392 19/147/393
f 19/147/394 95/146/395 76/109/396
f 96/151/397 45/150/398 56/152/399
f 56/152/400 77/153/401 96/151/402
