# This file uses centimeters as units for non-parametric coordinates.

mtllib ventana1.mtl
g default
v -0.660400 2.742000 0.218700
v -0.705300 2.742000 0.192700
v -0.705300 2.778000 0.192700
v -0.660400 2.778000 0.218700
v -0.660400 2.369500 0.218700
v -0.705300 2.369500 0.192700
v -0.705300 2.388700 0.192700
v -0.660400 2.388700 0.218700
v -0.660400 2.019500 0.218700
v -0.705300 2.019500 0.192700
v -0.660400 1.998200 0.218700
v -0.705300 1.998200 0.192700
v -0.660400 1.639300 0.218700
v -0.705300 1.639300 0.192700
v -0.660400 1.619200 0.218700
v -0.705300 1.619200 0.192700
v -0.660400 1.262800 0.218700
v -0.705300 1.262800 0.192700
v -0.660400 1.225300 0.218700
v -0.705300 1.225300 0.192700
v -1.014500 2.742000 0.014200
v -1.014500 2.778000 0.014200
v -1.014500 2.369500 0.014200
v -1.014500 2.388700 0.014200
v -1.014500 1.998200 0.014200
v -1.014500 2.019500 0.014200
v -1.014500 1.619200 0.014200
v -1.014500 1.639300 0.014200
v -1.014500 1.225300 0.014200
v -1.014500 1.262800 0.014200
v -1.050100 2.742000 -0.006300
v -1.050100 2.778000 -0.006300
v -1.050100 2.369500 -0.006300
v -1.050100 2.388700 -0.006300
v -1.050100 2.019500 -0.006300
v -1.050100 1.998200 -0.006300
v -1.050100 1.639300 -0.006300
v -1.050100 1.619200 -0.006300
v -1.050100 1.262800 -0.006300
v -1.050100 1.225300 -0.006300
v -0.695300 2.362700 0.175400
v -1.004500 2.362700 -0.003100
v -0.695300 2.025800 0.175400
v -1.004500 2.025800 -0.003100
v -0.695300 1.991800 0.175400
v -1.004500 1.991800 -0.003100
v -0.695300 1.648000 0.175400
v -1.004500 1.648000 -0.003100
v -0.695300 1.610500 0.175400
v -1.004500 1.610500 -0.003100
v -0.695300 1.262800 0.175400
v -1.004500 1.262800 -0.003100
v -1.004500 2.395600 -0.003100
v -0.695300 2.395600 0.175400
v -1.004500 2.742000 -0.003100
v -0.695300 2.742000 0.175400
v -0.640600 2.778000 0.184400
v -0.640600 2.742000 0.184400
v -1.030300 2.778000 -0.040600
v -0.994700 2.778000 -0.020000
v -1.030300 1.225300 -0.040600
v -1.030300 1.262800 -0.040600
v -0.640600 1.225300 0.184400
v -0.685500 1.225300 0.158500
v -0.640600 2.388700 0.184400
v -0.640600 2.369500 0.184400
v -1.030300 2.388700 -0.040600
v -1.030300 2.742000 -0.040600
v -1.030300 2.369500 -0.040600
v -0.640600 2.019500 0.184400
v -1.030300 2.019500 -0.040600
v -0.640600 1.998200 0.184400
v -1.030300 1.998200 -0.040600
v -0.640600 1.639300 0.184400
v -1.030300 1.639300 -0.040600
v -0.640600 1.619200 0.184400
v -1.030300 1.619200 -0.040600
v -0.640600 1.262800 0.184400
v -0.685500 2.778000 0.158500
v -0.994700 1.225300 -0.020000
vt 0.057300 0.999400
vt 0.057300 0.981000
vt 0.031100 0.981000
vt 0.031100 0.999400
vt 0.542000 0.763100
vt 0.544700 0.742200
vt 0.519600 0.744700
vt 0.518000 0.759100
vt 0.539800 0.416800
vt 0.516100 0.427600
vt 0.534900 0.408700
vt 0.513000 0.417900
vt 0.257500 0.177600
vt 0.241600 0.186400
vt 0.057300 0.415500
vt 0.057300 0.405300
vt 0.031100 0.405300
vt 0.031100 0.415500
vt 0.057300 0.222500
vt 0.031100 0.222500
vt 0.057300 0.203200
vt 0.031100 0.203200
vt 0.429000 0.978500
vt 0.409700 0.981300
vt 0.237600 0.999400
vt 0.237600 0.981000
vt 0.659800 0.990800
vt 0.660900 0.979400
vt 0.804700 0.187500
vt 0.800000 0.181600
vt 0.237600 0.415500
vt 0.237600 0.405300
vt 0.237600 0.222500
vt 0.237600 0.203200
vt 0.258400 0.999400
vt 0.258400 0.981000
vt 0.237600 0.799800
vt 0.258400 0.799800
vt 0.258400 0.790000
vt 0.237600 0.790000
vt 0.258400 0.610500
vt 0.237600 0.610500
vt 0.258400 0.599600
vt 0.237600 0.599600
vt 0.258400 0.415500
vt 0.258400 0.405300
vt 0.258400 0.222500
vt 0.258400 0.203200
vt 0.551200 0.740000
vt 0.667900 0.979400
vt 0.547200 0.428200
vt 0.810500 0.194200
vt 0.510800 0.017000
vt 0.514600 0.007000
vt 0.335200 0.001600
vt 0.338200 0.011800
vt 0.535800 0.398500
vt 0.799500 0.173800
vt 0.273000 0.355000
vt 0.292900 0.356500
vt 0.269100 0.212000
vt 0.259600 0.214900
vt 0.274600 0.498600
vt 0.291900 0.499000
vt 0.260900 0.638900
vt 0.267500 0.643200
vt 0.834200 0.323100
vt 0.850200 0.316200
vt 0.830900 0.172800
vt 0.819100 0.173200
vt 0.834000 0.471600
vt 0.848400 0.472600
vt 0.830300 0.621800
vt 0.841100 0.622600
vt 0.825000 0.770500
vt 0.835700 0.774600
vt 0.658900 0.999500
vt 0.541400 0.778100
vt 0.771500 0.363700
vt 0.787000 0.364700
vt 0.785700 0.230700
vt 0.769400 0.232900
vt 0.770200 0.497000
vt 0.784900 0.497400
vt 0.432000 0.986700
vt 0.001600 0.979800
vt 0.030500 0.979800
vt 0.031400 0.965700
vt 0.001700 0.965600
vt 0.818600 0.824900
vt 0.791100 0.824200
vt 0.790500 0.840200
vt 0.817800 0.840800
vt 0.821700 0.212300
vt 0.793100 0.212100
vt 0.792200 0.226900
vt 0.821400 0.227100
vt 0.002400 0.367700
vt 0.029000 0.368300
vt 0.029600 0.348200
vt 0.003000 0.347600
vt 0.001200 0.826200
vt 0.030300 0.826800
vt 0.030800 0.819200
vt 0.001500 0.818600
vt 0.819000 0.671500
vt 0.790900 0.670500
vt 0.791400 0.810000
vt 0.819700 0.810700
vt 0.819600 0.664000
vt 0.791400 0.663000
vt 0.030100 0.681400
vt 0.000500 0.680500
vt 0.819500 0.525900
vt 0.791400 0.524900
vt 0.030400 0.673000
vt 0.001200 0.672200
vt 0.820000 0.517500
vt 0.792000 0.516500
vt 0.029700 0.531600
vt 0.001900 0.530700
vt 0.820200 0.375800
vt 0.792000 0.375100
vt 0.030100 0.523700
vt 0.002400 0.522800
vt 0.820500 0.367900
vt 0.792600 0.367200
vt 0.028800 0.383100
vt 0.001400 0.382500
vt 0.820000 0.979200
vt 0.789500 0.979100
vt 0.789200 0.999300
vt 0.818400 0.999400
vt 0.029500 0.209400
vt 0.000700 0.209300
vt 0.029600 0.193400
vt 0.001700 0.193400
vn -0.501112 0.000000 0.865382
vn -0.501112 0.000000 0.865382
vn -0.501112 0.000000 0.865382
vn -0.500011 0.000000 0.866019
vn -0.500011 0.000000 0.866019
vn -0.500011 0.000000 0.866019
vn -0.500011 0.000000 0.866019
vn -0.500011 0.000000 0.866019
vn -0.500011 0.000000 0.866019
vn -0.500011 0.000000 0.866019
vn -0.500011 0.000000 0.866019
vn -0.500011 0.000000 0.866019
vn -0.500011 0.000000 0.866019
vn -0.500011 0.000000 0.866019
vn -0.500011 0.000000 0.866019
vn -0.500011 0.000000 0.866019
vn -0.500011 0.000000 0.866019
vn -0.500011 0.000000 0.866019
vn -0.500011 0.000000 0.866019
vn -0.500011 0.000000 0.866019
vn -0.500011 0.000000 0.866019
vn -0.500011 0.000000 0.866019
vn -0.500011 0.000000 0.866019
vn -0.500011 0.000000 0.866019
vn -0.500011 0.000000 0.866019
vn -0.500011 0.000000 0.866019
vn -0.500011 0.000000 0.866019
vn -0.500011 0.000000 0.866019
vn -0.500011 0.000000 0.866019
vn -0.500011 0.000000 0.866019
vn -0.500011 0.000000 0.866019
vn -0.500011 0.000000 0.866019
vn -0.500011 0.000000 0.866019
vn -0.500011 0.000000 0.866019
vn -0.500011 0.000000 0.866019
vn -0.500011 0.000000 0.866019
vn -0.500011 0.000000 0.866019
vn -0.500011 0.000000 0.866019
vn -0.500011 0.000000 0.866019
vn -0.500011 0.000000 0.866019
vn -0.500011 0.000000 0.866019
vn -0.500011 0.000000 0.866019
vn -0.500011 0.000000 0.866019
vn -0.500011 0.000000 0.866019
vn -0.500011 0.000000 0.866019
vn -0.500011 0.000000 0.866019
vn -0.500011 0.000000 0.866019
vn -0.500011 0.000000 0.866019
vn -0.500011 0.000000 0.866019
vn -0.500011 0.000000 0.866019
vn -0.500011 0.000000 0.866019
vn -0.500011 0.000000 0.866019
vn -0.500011 0.000000 0.866019
vn -0.500011 0.000000 0.866019
vn -0.500011 0.000000 0.866019
vn -0.500011 0.000000 0.866019
vn -0.500011 0.000000 0.866019
vn -0.500011 0.000000 0.866019
vn -0.500011 0.000000 0.866019
vn -0.500011 0.000000 0.866019
vn -0.500011 0.000000 0.866019
vn -0.500011 0.000000 0.866019
vn -0.500011 0.000000 0.866019
vn -0.500011 0.000000 0.866019
vn -0.500011 0.000000 0.866019
vn -0.500011 0.000000 0.866019
vn -0.500011 0.000000 0.866019
vn -0.500011 0.000000 0.866019
vn -0.500011 0.000000 0.866019
vn -0.500011 0.000000 0.866019
vn -0.500011 0.000000 0.866019
vn -0.500011 0.000000 0.866019
vn -0.500011 0.000000 0.866019
vn -0.500011 0.000000 0.866019
vn -0.500011 0.000000 0.866019
vn -0.500011 0.000000 0.866019
vn -0.500011 0.000000 0.866019
vn -0.500011 0.000000 0.866019
vn -0.500011 0.000000 0.866019
vn -0.500011 0.000000 0.866019
vn -0.500011 0.000000 0.866019
vn -0.500011 0.000000 0.866019
vn -0.500011 0.000000 0.866019
vn -0.500011 0.000000 0.866019
vn -0.500011 0.000000 0.866019
vn -0.500011 0.000000 0.866019
vn -0.500011 0.000000 0.866019
vn -0.500011 0.000000 0.866019
vn -0.500011 0.000000 0.866019
vn -0.500011 0.000000 0.866019
vn -0.500011 0.000000 0.866019
vn -0.500011 0.000000 0.866019
vn -0.500011 0.000000 0.866019
vn -0.500011 0.000000 0.866019
vn -0.500011 0.000000 0.866019
vn -0.500011 0.000000 0.866019
vn -0.500011 0.000000 0.866019
vn -0.500011 0.000000 0.866019
vn -0.500011 0.000000 0.866019
vn -0.500011 0.000000 0.866019
vn -0.500011 0.000000 0.866019
vn -0.500011 0.000000 0.866019
vn -0.500011 0.000000 0.866019
vn -0.500011 0.000000 0.866019
vn -0.500011 0.000000 0.866019
vn -0.500011 0.000000 0.866019
vn -0.500011 0.000000 0.866019
vn -0.500011 0.000000 0.866019
vn -0.500011 0.000000 0.866019
vn -0.500011 0.000000 0.866019
vn -0.500011 0.000000 0.866019
vn -0.500011 0.000000 0.866019
vn -0.500011 0.000000 0.866019
vn -0.500011 0.000000 0.866019
vn -0.500011 0.000000 0.866019
vn -0.500011 0.000000 0.866019
vn -0.500011 0.000000 0.866019
vn -0.500011 0.000000 0.866019
vn -0.500011 0.000000 0.866019
vn -0.500011 0.000000 0.866019
vn -0.500011 0.000000 0.866019
vn -0.500011 0.000000 0.866019
vn -0.500011 0.000000 0.866019
vn -0.500011 0.000000 0.866019
vn -0.500011 0.000000 0.866019
vn -0.500011 0.000000 0.866019
vn -0.500011 0.000000 0.866019
vn -0.500011 0.000000 0.866019
vn -0.500011 0.000000 0.866019
vn -0.500011 0.000000 0.866019
vn -0.500011 0.000000 0.866019
vn -0.500011 0.000000 0.866019
vn -0.500011 0.000000 0.866019
vn -0.500011 0.000000 0.866019
vn -0.500011 0.000000 0.866019
vn -0.500011 0.000000 0.866019
vn -0.500011 0.000000 0.866019
vn -0.500011 0.000000 0.866019
vn -0.164594 -0.944263 0.285089
vn -0.164594 -0.944263 0.285089
vn -0.164594 -0.944263 0.285089
vn -0.164594 -0.944263 0.285089
vn -0.164594 -0.944263 0.285089
vn -0.164594 -0.944263 0.285089
vn -0.866019 0.000000 -0.500011
vn -0.866019 0.000000 -0.500011
vn -0.866019 0.000000 -0.500011
vn -0.866019 0.000000 -0.500011
vn -0.866019 0.000000 -0.500011
vn -0.866019 0.000000 -0.500011
vn -0.153604 0.951626 0.266107
vn -0.153604 0.951626 0.266107
vn -0.153604 0.951626 0.266107
vn -0.153604 0.951626 0.266107
vn -0.153604 0.951626 0.266107
vn -0.153604 0.951626 0.266107
vn 0.866019 0.000000 0.500011
vn 0.866019 0.000000 0.500011
vn 0.866019 0.000000 0.500011
vn 0.866019 0.000000 0.500011
vn 0.866019 0.000000 0.500011
vn 0.866019 0.000000 0.500011
vn -0.153604 -0.951626 0.266107
vn -0.153604 -0.951626 0.266107
vn -0.153604 -0.951626 0.266107
vn -0.153604 -0.951626 0.266107
vn -0.153604 -0.951626 0.266107
vn -0.153604 -0.951626 0.266107
vn -0.866019 0.000000 -0.500011
vn -0.866019 0.000000 -0.500011
vn -0.866019 0.000000 -0.500011
vn -0.866019 0.000000 -0.500011
vn -0.866019 0.000000 -0.500011
vn -0.866019 0.000000 -0.500011
vn -0.202595 0.914276 0.350791
vn -0.202595 0.914276 0.350791
vn -0.202595 0.914276 0.350791
vn -0.202595 0.914276 0.350791
vn -0.202595 0.914276 0.350791
vn -0.202595 0.914276 0.350791
vn 0.866019 0.000000 0.500011
vn 0.866019 0.000000 0.500011
vn 0.866019 0.000000 0.500011
vn 0.866019 0.000000 0.500011
vn 0.866019 0.000000 0.500011
vn 0.866019 0.000000 0.500011
vn -0.202595 -0.914276 0.350791
vn -0.202595 -0.914276 0.350791
vn -0.202595 -0.914276 0.350791
vn -0.202595 -0.914276 0.350791
vn -0.202595 -0.914276 0.350791
vn -0.202595 -0.914276 0.350791
vn -0.866019 0.000000 -0.500011
vn -0.866019 0.000000 -0.500011
vn -0.866019 0.000000 -0.500011
vn -0.866019 0.000000 -0.500011
vn -0.866019 0.000000 -0.500011
vn -0.866019 0.000000 -0.500011
vn 0.000000 1.000000 0.000000
vn 0.000000 1.000000 0.000000
vn 0.000000 1.000000 0.000000
vn 0.000000 1.000000 0.000000
vn 0.000000 1.000000 0.000000
vn 0.000000 1.000000 0.000000
vn 0.866019 0.000000 0.500011
vn 0.866019 0.000000 0.500011
vn 0.866019 0.000000 0.500011
vn 0.866019 0.000000 0.500011
vn 0.866019 0.000000 0.500011
vn 0.866019 0.000000 0.500011
vn -0.164594 0.944263 0.285089
vn -0.164594 0.944263 0.285089
vn -0.164594 0.944263 0.285089
vn -0.164594 0.944263 0.285089
vn -0.164594 0.944263 0.285089
vn -0.164594 0.944263 0.285089
vn 0.866019 0.000000 0.500011
vn 0.866019 0.000000 0.500011
vn 0.866019 0.000000 0.500011
vn 0.866019 0.000000 0.500011
vn 0.866019 0.000000 0.500011
vn 0.866019 0.000000 0.500011
vn 0.000000 -1.000000 0.000000
vn 0.000000 -1.000000 0.000000
vn 0.000000 -1.000000 0.000000
vn 0.000000 -1.000000 0.000000
vn 0.000000 -1.000000 0.000000
vn 0.000000 -1.000000 0.000000
vn -0.866019 0.000000 -0.500011
vn -0.866019 0.000000 -0.500011
vn -0.866019 0.000000 -0.500011
vn -0.866019 0.000000 -0.500011
vn -0.866019 0.000000 -0.500011
vn -0.866019 0.000000 -0.500011
vn 0.866019 0.000000 0.500011
vn 0.866019 0.000000 0.500011
vn 0.866019 0.000000 0.500011
vn 0.866019 0.000000 0.500011
vn 0.866019 0.000000 0.500011
vn 0.866019 0.000000 0.500011
vn 0.000000 1.000000 0.000000
vn 0.000000 1.000000 0.000000
vn 0.000000 1.000000 0.000000
vn 0.000000 1.000000 0.000000
vn 0.000000 1.000000 0.000000
vn 0.000000 1.000000 0.000000
vn -0.866019 0.000000 -0.500011
vn -0.866019 0.000000 -0.500011
vn -0.866019 0.000000 -0.500011
vn -0.866019 0.000000 -0.500011
vn -0.866019 0.000000 -0.500011
vn -0.866019 0.000000 -0.500011
vn 0.000000 -1.000000 0.000000
vn 0.000000 -1.000000 0.000000
vn 0.000000 -1.000000 0.000000
vn 0.000000 -1.000000 0.000000
vn 0.000000 -1.000000 0.000000
vn 0.000000 -1.000000 0.000000
vn 0.866019 0.000000 0.500011
vn 0.866019 0.000000 0.500011
vn 0.866019 0.000000 0.500011
vn 0.866019 0.000000 0.500011
vn 0.866019 0.000000 0.500011
vn 0.866019 0.000000 0.500011
vn -0.866019 0.000000 -0.500011
vn -0.866019 0.000000 -0.500011
vn -0.866019 0.000000 -0.500011
vn -0.866019 0.000000 -0.500011
vn -0.866019 0.000000 -0.500011
vn -0.866019 0.000000 -0.500011
vn -0.866019 0.000000 -0.500011
vn -0.866019 0.000000 -0.500011
vn -0.866019 0.000000 -0.500011
vn -0.866019 0.000000 -0.500011
vn -0.866019 0.000000 -0.500011
vn -0.866019 0.000000 -0.500011
vn 0.866019 0.000000 0.500011
vn 0.866019 0.000000 0.500011
vn 0.866019 0.000000 0.500011
vn 0.866019 0.000000 0.500011
vn 0.866019 0.000000 0.500011
vn 0.866019 0.000000 0.500011
vn -0.866019 0.000000 -0.500011
vn -0.866019 0.000000 -0.500011
vn -0.866019 0.000000 -0.500011
vn -0.866019 0.000000 -0.500011
vn -0.866019 0.000000 -0.500011
vn -0.866019 0.000000 -0.500011
vn 0.866019 0.000000 0.500011
vn 0.866019 0.000000 0.500011
vn 0.866019 0.000000 0.500011
vn 0.866019 0.000000 0.500011
vn 0.866019 0.000000 0.500011
vn 0.866019 0.000000 0.500011
vn -0.866019 0.000000 -0.500011
vn -0.866019 0.000000 -0.500011
vn -0.866019 0.000000 -0.500011
vn -0.866019 0.000000 -0.500011
vn -0.866019 0.000000 -0.500011
vn -0.866019 0.000000 -0.500011
vn 0.866019 0.000000 0.500011
vn 0.866019 0.000000 0.500011
vn 0.866019 0.000000 0.500011
vn 0.866019 0.000000 0.500011
vn 0.866019 0.000000 0.500011
vn 0.866019 0.000000 0.500011
vn -0.866019 0.000000 -0.500011
vn -0.866019 0.000000 -0.500011
vn -0.866019 0.000000 -0.500011
vn -0.866019 0.000000 -0.500011
vn -0.866019 0.000000 -0.500011
vn -0.866019 0.000000 -0.500011
vn 0.866019 0.000000 0.500011
vn 0.866019 0.000000 0.500011
vn 0.866019 0.000000 0.500011
vn 0.866019 0.000000 0.500011
vn 0.866019 0.000000 0.500011
vn 0.866019 0.000000 0.500011
vn -0.866019 0.000000 -0.500011
vn -0.866019 0.000000 -0.500011
vn -0.866019 0.000000 -0.500011
vn -0.866019 0.000000 -0.500011
vn -0.866019 0.000000 -0.500011
vn -0.866019 0.000000 -0.500011
vn 0.866019 0.000000 0.500011
vn 0.866019 0.000000 0.500011
vn 0.866019 0.000000 0.500011
vn 0.866019 0.000000 0.500011
vn 0.866019 0.000000 0.500011
vn 0.866019 0.000000 0.500011
vn -0.866019 0.000000 -0.500011
vn -0.866019 0.000000 -0.500011
vn -0.866019 0.000000 -0.500011
vn -0.866019 0.000000 -0.500011
vn -0.866019 0.000000 -0.500011
vn -0.866019 0.000000 -0.500011
vn 0.866019 0.000000 0.500011
vn 0.866019 0.000000 0.500011
vn 0.866019 0.000000 0.500011
vn 0.866019 0.000000 0.500011
vn 0.866019 0.000000 0.500011
vn 0.866019 0.000000 0.500011
vn 0.866019 0.000000 0.500011
vn 0.866019 0.000000 0.500011
vn 0.866019 0.000000 0.500011
vn 0.866019 0.000000 0.500011
vn 0.866019 0.000000 0.500011
vn 0.866019 0.000000 0.500011
vn -0.866019 0.000000 -0.500011
vn -0.866019 0.000000 -0.500011
vn -0.866019 0.000000 -0.500011
vn -0.866019 0.000000 -0.500011
vn -0.866019 0.000000 -0.500011
vn -0.866019 0.000000 -0.500011
vn 0.000000 1.000000 0.000000
vn 0.000000 1.000000 0.000000
vn 0.000000 1.000000 0.000000
vn 0.000000 1.000000 0.000000
vn 0.000000 1.000000 0.000000
vn 0.000000 1.000000 0.000000
vn 0.000000 -1.000000 0.000000
vn 0.000000 -1.000000 0.000000
vn 0.000000 -1.000000 0.000000
vn 0.000000 -1.000000 0.000000
vn 0.000000 -1.000000 0.000000
vn 0.000000 -1.000000 0.000000
vn 0.000000 1.000000 0.000000
vn 0.000000 1.000000 0.000000
vn 0.000000 1.000000 0.000000
vn 0.000000 1.000000 0.000000
vn 0.000000 1.000000 0.000000
vn 0.000000 1.000000 0.000000
vn 0.000000 -1.000000 0.000000
vn 0.000000 -1.000000 0.000000
vn 0.000000 -1.000000 0.000000
vn 0.000000 -1.000000 0.000000
vn 0.000000 -1.000000 0.000000
vn 0.000000 -1.000000 0.000000
s off
g Enter_a_title:win_still pasted__ventana2 group1
usemtl pasted__phongE7SG
f 3/1/1 2/2/2 1/3/3
f 1/3/4 4/4/5 3/1/6
f 7/5/7 6/6/8 5/7/9
f 5/7/10 8/8/11 7/5/12
f 6/6/13 10/9/14 9/10/15
f 9/10/16 5/7/17 6/6/18
f 10/9/19 12/11/20 11/12/21
f 11/12/22 9/10/23 10/9/24
f 12/11/25 14/13/26 13/14/27
f 13/14/28 11/12/29 12/11/30
f 14/15/31 16/16/32 15/17/33
f 15/17/34 13/18/35 14/15/36
f 16/16/37 18/19/38 17/20/39
f 17/20/40 15/17/41 16/16/42
f 18/19/43 20/21/44 19/22/45
f 19/22/46 17/20/47 18/19/48
f 2/23/49 7/5/50 8/8/51
f 8/8/52 1/24/53 2/23/54
f 3/1/55 22/25/56 21/26/57
f 21/26/58 2/2/59 3/1/60
f 7/5/61 24/27/62 23/28/63
f 23/28/64 6/6/65 7/5/66
f 10/9/67 26/29/68 25/30/69
f 25/30/70 12/11/71 10/9/72
f 14/15/73 28/31/74 27/32/75
f 27/32/76 16/16/77 14/15/78
f 18/19/79 30/33/80 29/34/81
f 29/34/82 20/21/83 18/19/84
f 22/25/85 32/35/86 31/36/87
f 31/36/88 21/26/89 22/25/90
f 24/37/91 34/38/92 33/39/93
f 33/39/94 23/40/95 24/37/96
f 23/40/97 33/39/98 35/41/99
f 35/41/100 26/42/101 23/40/102
f 26/42/103 35/41/104 36/43/105
f 36/43/106 25/44/107 26/42/108
f 25/44/109 36/43/110 37/45/111
f 37/45/112 28/31/113 25/44/114
f 28/31/115 37/45/116 38/46/117
f 38/46/118 27/32/119 28/31/120
f 27/32/121 38/46/122 39/47/123
f 39/47/124 30/33/125 27/32/126
f 30/33/127 39/47/128 40/48/129
f 40/48/130 29/34/131 30/33/132
f 21/26/133 31/36/134 34/38/135
f 34/38/136 24/37/137 21/26/138
f 41/49/139 6/6/140 23/28/141
f 23/28/142 42/50/143 41/49/144
f 43/51/145 10/9/146 6/6/147
f 6/6/148 41/49/149 43/51/150
f 44/52/151 26/29/152 10/9/153
f 10/9/154 43/51/155 44/52/156
f 42/53/157 23/54/158 26/55/159
f 26/55/160 44/56/161 42/53/162
f 45/57/163 12/11/164 25/30/165
f 25/30/166 46/58/167 45/57/168
f 47/59/169 14/60/170 12/61/171
f 12/61/172 45/62/173 47/59/174
f 48/63/175 28/64/176 14/60/177
f 14/60/178 47/59/179 48/63/180
f 46/65/181 25/66/182 28/64/183
f 28/64/184 48/63/185 46/65/186
f 49/67/187 16/68/188 27/69/189
f 27/69/190 50/70/191 49/67/192
f 51/71/193 18/72/194 16/68/195
f 16/68/196 49/67/197 51/71/198
f 52/73/199 30/74/200 18/72/201
f 18/72/202 51/71/203 52/73/204
f 50/75/205 27/76/206 30/74/207
f 30/74/208 52/73/209 50/75/210
f 53/77/211 24/27/212 7/5/213
f 7/5/214 54/78/215 53/77/216
f 55/79/217 21/80/218 24/81/219
f 24/81/220 53/82/221 55/79/222
f 56/83/223 2/84/224 21/80/225
f 21/80/226 55/79/227 56/83/228
f 54/78/229 7/5/230 2/23/231
f 2/23/232 56/85/233 54/78/234
f 57/86/235 4/87/236 1/88/237
f 1/88/238 58/89/239 57/86/240
f 59/90/241 32/91/242 22/92/243
f 22/92/244 60/93/245 59/90/246
f 61/94/247 40/95/248 39/96/249
f 39/96/250 62/97/251 61/94/252
f 63/98/253 19/99/254 20/100/255
f 20/100/256 64/101/257 63/98/258
f 65/102/259 8/103/260 5/104/261
f 5/104/262 66/105/263 65/102/264
f 67/106/265 34/107/266 31/108/267
f 31/108/268 68/109/269 67/106/270
f 69/110/271 33/111/272 34/107/273
f 34/107/274 67/106/275 69/110/276
f 66/105/277 5/104/278 9/112/279
f 9/112/280 70/113/281 66/105/282
f 71/114/283 35/115/284 33/111/285
f 33/111/286 69/110/287 71/114/288
f 70/113/289 9/112/290 11/116/291
f 11/116/292 72/117/293 70/113/294
f 73/118/295 36/119/296 35/115/297
f 35/115/298 71/114/299 73/118/300
f 72/117/301 11/116/302 13/120/303
f 13/120/304 74/121/305 72/117/306
f 75/122/307 37/123/308 36/119/309
f 36/119/310 73/118/311 75/122/312
f 74/121/313 13/120/314 15/124/315
f 15/124/316 76/125/317 74/121/318
f 77/126/319 38/127/320 37/123/321
f 37/123/322 75/122/323 77/126/324
f 76/125/325 15/124/326 17/128/327
f 17/128/328 78/129/329 76/125/330
f 62/97/331 39/96/332 38/127/333
f 38/127/334 77/126/335 62/97/336
f 78/129/337 17/128/338 19/99/339
f 19/99/340 63/98/341 78/129/342
f 58/89/343 1/88/344 8/103/345
f 8/103/346 65/102/347 58/89/348
f 68/109/349 31/108/350 32/91/351
f 32/91/352 59/90/353 68/109/354
f 79/130/355 3/131/356 4/132/357
f 4/132/358 57/133/359 79/130/360
f 64/101/361 20/100/362 29/134/363
f 29/134/364 80/135/365 64/101/366
f 60/93/367 22/92/368 3/131/369
f 3/131/370 79/130/371 60/93/372
f 80/135/373 29/134/374 40/136/375
f 40/136/376 61/137/377 80/135/378
g default
v -1.004500 2.025800 -0.003100
v -1.004500 2.362700 -0.003100
v -0.695300 2.362700 0.175400
v -0.695300 2.025800 0.175400
v -1.004500 1.648000 -0.003100
v -1.004500 1.991800 -0.003100
v -0.695300 1.991800 0.175400
v -0.695300 1.648000 0.175400
v -1.004500 1.262800 -0.003100
v -1.004500 1.610500 -0.003100
v -0.695300 1.610500 0.175400
v -0.695300 1.262800 0.175400
v -1.004500 2.395600 -0.003100
v -1.004500 2.742000 -0.003100
v -0.695300 2.742000 0.175400
v -0.695300 2.395600 0.175400
vt 0.211400 0.029400
vt 0.031000 0.029400
vt 0.031000 0.202100
vt 0.211400 0.202100
vt 0.997400 0.956200
vt 0.997400 0.775900
vt 0.821100 0.775900
vt 0.821100 0.956200
vt 0.618100 0.147400
vt 0.437800 0.147400
vt 0.437800 0.325700
vt 0.618100 0.325700
vt 0.465400 0.106500
vt 0.319500 0.000500
vt 0.215100 0.144200
vt 0.361000 0.250200
vn -0.499965 0.000000 0.866045
vn -0.499965 0.000000 0.866045
vn -0.499965 0.000000 0.866045
vn -0.500011 0.000000 0.866019
vn -0.500011 0.000000 0.866019
vn -0.500011 0.000000 0.866019
vn -0.500011 0.000000 0.866019
vn -0.500011 0.000000 0.866019
vn -0.500011 0.000000 0.866019
vn -0.500011 0.000000 0.866019
vn -0.500011 0.000000 0.866019
vn -0.500011 0.000000 0.866019
vn -0.500011 0.000000 0.866019
vn -0.500011 0.000000 0.866019
vn -0.500011 0.000000 0.866019
vn -0.500011 0.000000 0.866019
vn -0.500011 0.000000 0.866019
vn -0.500011 0.000000 0.866019
vn -0.500011 0.000000 0.866019
vn -0.500011 0.000000 0.866019
vn -0.500011 0.000000 0.866019
vn -0.500011 0.000000 0.866019
vn -0.500011 0.000000 0.866019
vn -0.500011 0.000000 0.866019
s off
g pasted__ventana2 group1 Enter_a_title:glass2
usemtl pasted__phongE5SG
f 83/138/379 82/139/380 81/140/381
f 81/140/382 84/141/383 83/138/384
f 87/142/385 86/143/386 85/144/387
f 85/144/388 88/145/389 87/142/390
f 91/146/391 90/147/392 89/148/393
f 89/148/394 92/149/395 91/146/396
f 95/150/397 94/151/398 93/152/399
f 93/152/400 96/153/401 95/150/402
